{"title":"The Letter Writer 2011 BRRip Ac3 Xvid - ANALOG","uid":7791759,"size":1564611096,"categoryP":"video","categoryS":"movies","magnet":"?xt=urn:btih:d878fdb0ab276a4d0fe7b09776f81682a6983f48&amp;dn=The+Letter+Writer+2011+BRRip+Ac3+Xvid+-+ANALOG&amp;tr=udp%3A%2F%2Ftracker.openbittorrent.com%3A80&amp;tr=udp%3A%2F%2Fopen.demonii.com%3A1337&amp;tr=udp%3A%2F%2Ftracker.coppersurfer.tk%3A6969&amp;tr=udp%3A%2F%2Fexodus.desync.com%3A6969","seeders":5,"leechers":3,"uploader":"Gh0stNet","files":10,"time":1352042038,"description":" &lt;a href=&quot;http://www.imdb.com/title/tt2320087&quot; rel=&quot;nofollow&quot; target=&quot;_NEW&quot;&gt;http://www.imdb.com/title/tt2320087&lt;/a&gt;\nComplete name : The.Letter.Writer.2011.BRRip.Ac3.Xvid.ANALOGT.L.W.BRR.ANALOG.avi\nFormat : AVI\nFormat/Info : Audio Video Interleave\nFile size : 1.44 GiB\nDuration : 1h 25mn\nOverall bit rate : 2 411 Kbps\n\nVideo\nID : 0\nFormat : MPEG-4 Visual\nFormat profile : Advanced Simple@L5\nFormat settings, BVOP : 2\nFormat settings, QPel : No\nFormat settings, GMC : No warppoints\nFormat settings, Matrix : Default (MPEG)\nMuxing mode : Packed bitstream\nCodec ID : XVID\nCodec ID/Hint : XviD\nDuration : 1h 25mn\nBit rate : 2 019 Kbps\nWidth : 720 pixels\nHeight : 400 pixels\nDisplay aspect ratio : 16:9\nFrame rate : 23.976 fps\nColor space : YUV\nChroma subsampling : 4:2:0\nBit depth : 8 bits\nScan type : Progressive\nCompression mode : Lossy\nBits/(Pixel*Frame) : 0.292\nStream size : 1.20 GiB (84%)\nWriting library : XviD 1.2.1 (UTC 2008-12-04)\n\nAudio\nID : 1\nFormat : AC-3\nFormat/Info : Audio Coding 3\nMode extension : CM (complete main)\nFormat settings, Endianness : Big\nCodec ID : 2000\nDuration : 1h 25mn\nBit rate mode : Constant\nBit rate : 384 Kbps\nChannel(s) : 6 channels\nChannel positions : Front: L C R, Side: L R, LFE\nSampling rate : 48.0 KHz\nBit depth : 16 bits\nCompression mode : Lossy\nStream size : 234 MiB (16%)\nAlignment : Aligned on interleaves\nInterleave, duration : 64 ms (1.53 video frames)\nInterleave, preload duration : 192 ms\nTitle : tlw.track_2_English_ANALOG\nSubs : English(hard.of.hearing)\nSample : Yes\nAs humans, we perceive the world in analog. Everything we see and hear is a continuous transmission of information to our senses.\n&lt;a class=&quot;__cf_email__&quot; href=&quot;/cdn-cgi/l/email-protection&quot; data-cfemail=&quot;167778777a7971386638243866567e63657e7b777f7a3875797b&quot;&gt;[email&amp;#160;protected]&lt;/a&gt;&lt;script cf-hash='f9e31' type=&quot;text/javascript&quot;&gt;\n/* &lt;![CDATA[ */!function(){try{var t=&quot;currentScript&quot;in document?document.currentScript:function(){for(var t=document.getElementsByTagName(&quot;script&quot;),e=t.length;e--;)if(t[e].getAttribute(&quot;cf-hash&quot;))return t[e]}();if(t&amp;&amp;t.previousSibling){var e,r,n,i,c=t.previousSibling,a=c.getAttribute(&quot;data-cfemail&quot;);if(a){for(e=&quot;&quot;,r=parseInt(a.substr(0,2),16),n=2;a.length-n;n+=2)i=parseInt(a.substr(n,2),16)^r,e+=String.fromCharCode(i);e=document.createTextNode(e),c.parentNode.replaceChild(e,c)}}}catch(u){}}();/* ]]&gt; */&lt;/script&gt;\nGREETS:\nRx / REFiLL / BHRG / 26K /DTRG / Xtreme Encode / INSPiRAL / KoDeKinG /LEGiTiMATE / LEGi0N / HDC / PRESTIGE / HOPE / RESiSTANCE\nAND ALL THE OUTHER PLACES I LURK AROUND AT!!\n &lt;a href=&quot;\nhttp://old.rapidimg.org/images/uOI4M.jpg&quot; rel=&quot;nofollow&quot; target=&quot;_NEW&quot;&gt;\nhttp://old.rapidimg.org/images/uOI4M.jpg&lt;/a&gt; &lt;a href=&quot;\nhttp://old.rapidimg.org/images/B0XfZ.jpg&quot; rel=&quot;nofollow&quot; target=&quot;_NEW&quot;&gt;\nhttp://old.rapidimg.org/images/B0XfZ.jpg&lt;/a&gt; &lt;a href=&quot;\nhttp://old.rapidimg.org/images/NnUog.jpg&quot; rel=&quot;nofollow&quot; target=&quot;_NEW&quot;&gt;\nhttp://old.rapidimg.org/images/NnUog.jpg&lt;/a&gt; &lt;a href=&quot;\nhttp://old.rapidimg.org/images/xurh.jpg&quot; rel=&quot;nofollow&quot; target=&quot;_NEW&quot;&gt;\nhttp://old.rapidimg.org/images/xurh.jpg&lt;/a&gt; &lt;a href=&quot;\nhttp://old.rapidimg.org/images/z5YdT.jpg&quot; rel=&quot;nofollow&quot; target=&quot;_NEW&quot;&gt;\nhttp://old.rapidimg.org/images/z5YdT.jpg&lt;/a&gt; &lt;a href=&quot;\nhttp://old.rapidimg.org/images/5Gvnl.jpg&quot; rel=&quot;nofollow&quot; target=&quot;_NEW&quot;&gt;\nhttp://old.rapidimg.org/images/5Gvnl.jpg&lt;/a&gt;","torrent":{"xt":"urn:btih:d878fdb0ab276a4d0fe7b09776f81682a6983f48","amp;dn":"The+Letter+Writer+2011+BRRip+Ac3+Xvid+-+ANALOG","amp;tr":["udp%3A%2F%2Ftracker.openbittorrent.com%3A80","udp%3A%2F%2Fopen.demonii.com%3A1337","udp%3A%2F%2Ftracker.coppersurfer.tk%3A6969","udp%3A%2F%2Fexodus.desync.com%3A6969"],"infoHash":"d878fdb0ab276a4d0fe7b09776f81682a6983f48","infoHashBuffer":{"type":"Buffer","data":[216,120,253,176,171,39,106,77,15,231,176,151,118,248,22,130,166,152,63,72]},"announce":[],"urlList":[]}}